<svg xmlns="http://www.w3.org/2000/svg" viewBox="0 0 264 111" width="264" height="111" shape-rendering="crispEdges" role="img" aria-label="Cobalt: the element tile Co, atomic number 27, in blue on white, and balt in white on blue, all in pixel lettering">
<rect x="0" y="0" width="264" height="111" fill="#6E93D6"/>
<rect x="0" y="0" width="112" height="111" fill="#ffffff"/>
<rect x="16" y="16" width="9" height="3" fill="#6E93D6"/>
<rect x="22" y="19" width="3" height="3" fill="#6E93D6"/>
<rect x="16" y="22" width="9" height="3" fill="#6E93D6"/>
<rect x="16" y="25" width="3" height="3" fill="#6E93D6"/>
<rect x="16" y="28" width="9" height="3" fill="#6E93D6"/>
<rect x="28" y="16" width="9" height="3" fill="#6E93D6"/>
<rect x="34" y="19" width="3" height="3" fill="#6E93D6"/>
<rect x="34" y="22" width="3" height="3" fill="#6E93D6"/>
<rect x="34" y="25" width="3" height="3" fill="#6E93D6"/>
<rect x="34" y="28" width="3" height="3" fill="#6E93D6"/>
<rect x="24" y="39" width="24" height="8" fill="#6E93D6"/>
<rect x="16" y="47" width="8" height="8" fill="#6E93D6"/>
<rect x="48" y="47" width="8" height="8" fill="#6E93D6"/>
<rect x="16" y="55" width="8" height="8" fill="#6E93D6"/>
<rect x="16" y="63" width="8" height="8" fill="#6E93D6"/>
<rect x="16" y="71" width="8" height="8" fill="#6E93D6"/>
<rect x="16" y="79" width="8" height="8" fill="#6E93D6"/>
<rect x="48" y="79" width="8" height="8" fill="#6E93D6"/>
<rect x="24" y="87" width="24" height="8" fill="#6E93D6"/>
<rect x="72" y="55" width="16" height="8" fill="#6E93D6"/>
<rect x="64" y="63" width="8" height="8" fill="#6E93D6"/>
<rect x="88" y="63" width="8" height="8" fill="#6E93D6"/>
<rect x="64" y="71" width="8" height="8" fill="#6E93D6"/>
<rect x="88" y="71" width="8" height="8" fill="#6E93D6"/>
<rect x="64" y="79" width="8" height="8" fill="#6E93D6"/>
<rect x="88" y="79" width="8" height="8" fill="#6E93D6"/>
<rect x="72" y="87" width="16" height="8" fill="#6E93D6"/>
<rect x="128" y="39" width="8" height="8" fill="#ffffff"/>
<rect x="128" y="47" width="8" height="8" fill="#ffffff"/>
<rect x="128" y="55" width="24" height="8" fill="#ffffff"/>
<rect x="128" y="63" width="8" height="8" fill="#ffffff"/>
<rect x="152" y="63" width="8" height="8" fill="#ffffff"/>
<rect x="128" y="71" width="8" height="8" fill="#ffffff"/>
<rect x="152" y="71" width="8" height="8" fill="#ffffff"/>
<rect x="128" y="79" width="8" height="8" fill="#ffffff"/>
<rect x="152" y="79" width="8" height="8" fill="#ffffff"/>
<rect x="128" y="87" width="24" height="8" fill="#ffffff"/>
<rect x="168" y="55" width="24" height="8" fill="#ffffff"/>
<rect x="192" y="63" width="8" height="8" fill="#ffffff"/>
<rect x="168" y="71" width="32" height="8" fill="#ffffff"/>
<rect x="168" y="79" width="8" height="8" fill="#ffffff"/>
<rect x="192" y="79" width="8" height="8" fill="#ffffff"/>
<rect x="168" y="87" width="32" height="8" fill="#ffffff"/>
<rect x="208" y="39" width="8" height="8" fill="#ffffff"/>
<rect x="208" y="47" width="8" height="8" fill="#ffffff"/>
<rect x="208" y="55" width="8" height="8" fill="#ffffff"/>
<rect x="208" y="63" width="8" height="8" fill="#ffffff"/>
<rect x="208" y="71" width="8" height="8" fill="#ffffff"/>
<rect x="208" y="79" width="8" height="8" fill="#ffffff"/>
<rect x="208" y="87" width="8" height="8" fill="#ffffff"/>
<rect x="232" y="39" width="8" height="8" fill="#ffffff"/>
<rect x="232" y="47" width="8" height="8" fill="#ffffff"/>
<rect x="224" y="55" width="24" height="8" fill="#ffffff"/>
<rect x="232" y="63" width="8" height="8" fill="#ffffff"/>
<rect x="232" y="71" width="8" height="8" fill="#ffffff"/>
<rect x="232" y="79" width="8" height="8" fill="#ffffff"/>
<rect x="232" y="87" width="16" height="8" fill="#ffffff"/>
<rect x="2" y="2" width="260" height="107" fill="none" stroke="#6E93D6" stroke-width="4"/>
</svg>
